<?xml version="1.0" encoding="UTF-8"?>
<!DOCTYPE svg PUBLIC "-//W3C//DTD SVG 1.1//EN" "http://www.w3.org/Graphics/SVG/1.1/DTD/svg11.dtd">
<svg xmlns="http://www.w3.org/2000/svg" version="1.1" width="500px" height="500px" style="shape-rendering:geometricPrecision; text-rendering:geometricPrecision; image-rendering:optimizeQuality; fill-rule:evenodd; clip-rule:evenodd" xmlns:xlink="http://www.w3.org/1999/xlink">
<g><path style="opacity:1" fill="#fefefe" d="M -0.5,-0.5 C 166.167,-0.5 332.833,-0.5 499.5,-0.5C 499.5,166.167 499.5,332.833 499.5,499.5C 332.833,499.5 166.167,499.5 -0.5,499.5C -0.5,332.833 -0.5,166.167 -0.5,-0.5 Z"/></g>
<g><path style="opacity:1" fill="#7bb9d5" d="M 419.5,99.5 C 350.5,99.5 281.5,99.5 212.5,99.5C 212.5,100.5 212.5,101.5 212.5,102.5C 212.167,102.5 211.833,102.5 211.5,102.5C 211.5,101.5 211.5,100.5 211.5,99.5C 280.833,98.1667 350.167,98.1667 419.5,99.5 Z"/></g>
<g><path style="opacity:1" fill="#16c067" d="M 34.5,100.5 C 93.331,99.501 152.331,99.1676 211.5,99.5C 211.5,100.5 211.5,101.5 211.5,102.5C 211.5,102.833 211.5,103.167 211.5,103.5C 201.167,103.5 190.833,103.5 180.5,103.5C 178.833,103.5 177.167,103.5 175.5,103.5C 128.452,103.157 81.4519,102.157 34.5,100.5 Z"/></g>
<g><path style="opacity:1" fill="#258bbb" d="M 419.5,99.5 C 420.167,99.5 420.5,99.8333 420.5,100.5C 438.909,196.878 457.576,293.211 476.5,389.5C 454.5,389.5 432.5,389.5 410.5,389.5C 407.647,373.863 404.98,358.196 402.5,342.5C 364.167,342.5 325.833,342.5 287.5,342.5C 285.408,342.561 283.908,343.561 283,345.5C 274.224,360.058 265.724,374.725 257.5,389.5C 232.5,389.5 207.5,389.5 182.5,389.5C 238.57,294.363 294.903,199.363 351.5,104.5C 352.043,104.44 352.376,104.107 352.5,103.5C 305.838,102.5 259.171,102.167 212.5,102.5C 212.5,101.5 212.5,100.5 212.5,99.5C 281.5,99.5 350.5,99.5 419.5,99.5 Z"/></g>
<g><path style="opacity:1" fill="#cacccc" d="M 420.5,100.5 C 421.5,100.5 422.5,100.5 423.5,100.5C 442.498,197.822 461.498,295.155 480.5,392.5C 479.167,392.5 477.833,392.5 476.5,392.5C 476.5,391.833 476.5,391.167 476.5,390.5C 476.5,390.167 476.5,389.833 476.5,389.5C 457.576,293.211 438.909,196.878 420.5,100.5 Z"/></g>
<g><path style="opacity:1" fill="#007c40" d="M 34.5,100.5 C 81.4519,102.157 128.452,103.157 175.5,103.5C 128.5,103.5 81.5,103.5 34.5,103.5C 34.5,102.5 34.5,101.5 34.5,100.5 Z"/></g>
<g><path style="opacity:1" fill="#a5cfe2" d="M 211.5,103.5 C 211.5,103.167 211.5,102.833 211.5,102.5C 211.833,102.5 212.167,102.5 212.5,102.5C 259.171,102.167 305.838,102.5 352.5,103.5C 352.376,104.107 352.043,104.44 351.5,104.5C 305.003,103.501 258.336,103.168 211.5,103.5 Z"/></g>
<g><path style="opacity:1" fill="#000000" d="M 34.5,103.5 C 81.5,103.5 128.5,103.5 175.5,103.5C 177.167,103.5 178.833,103.5 180.5,103.5C 184.404,104.492 188.404,105.492 192.5,106.5C 240.462,122.833 264.462,156.5 264.5,207.5C 263.383,258.263 238.716,291.263 190.5,306.5C 181.672,307.968 173.005,309.635 164.5,311.5C 161.833,311.5 159.167,311.5 156.5,311.5C 138.167,311.5 119.833,311.5 101.5,311.5C 100.502,337.661 100.169,363.995 100.5,390.5C 127.5,390.5 154.5,390.5 181.5,390.5C 181.5,391.5 181.5,392.5 181.5,393.5C 132.5,393.5 83.5,393.5 34.5,393.5C 34.5,296.833 34.5,200.167 34.5,103.5 Z"/></g>
<g><path style="opacity:1" fill="#c2c2c2" d="M 192.5,106.5 C 236.676,117.85 262.176,146.184 269,191.5C 273.656,228.205 262.822,259.372 236.5,285C 223.091,296.204 207.758,303.37 190.5,306.5C 238.716,291.263 263.383,258.263 264.5,207.5C 264.462,156.5 240.462,122.833 192.5,106.5 Z"/></g>
<g><path style="opacity:1" fill="#c0c0c0" d="M 150.5,159.5 C 135.5,159.5 120.5,159.5 105.5,159.5C 105.5,191.167 105.5,222.833 105.5,254.5C 103.833,254.5 102.167,254.5 100.5,254.5C 100.5,222.5 100.5,190.5 100.5,158.5C 117.342,158.17 134.008,158.503 150.5,159.5 Z"/></g>
<g><path style="opacity:1" fill="#fefefe" d="M 150.5,159.5 C 183.468,162.426 198.968,180.426 197,213.5C 194.36,234.812 182.526,247.979 161.5,253C 142.865,254.372 124.198,254.872 105.5,254.5C 105.5,222.833 105.5,191.167 105.5,159.5C 120.5,159.5 135.5,159.5 150.5,159.5 Z"/></g>
<g><path style="opacity:1" fill="#c6c9cb" d="M 374.5,187.5 C 355.155,221.527 335.821,255.527 316.5,289.5C 315.127,289.657 313.793,289.49 312.5,289C 333,253.833 353.5,218.667 374,183.5C 374.49,184.793 374.657,186.127 374.5,187.5 Z"/></g>
<g><path style="opacity:1" fill="#fdfefe" d="M 374.5,187.5 C 381.75,221.215 388.083,255.215 393.5,289.5C 367.833,289.5 342.167,289.5 316.5,289.5C 335.821,255.527 355.155,221.527 374.5,187.5 Z"/></g>
<g><path style="opacity:1" fill="#fefefe" d="M 180.5,103.5 C 190.833,103.5 201.167,103.5 211.5,103.5C 258.336,103.168 305.003,103.501 351.5,104.5C 294.903,199.363 238.57,294.363 182.5,389.5C 182.167,389.5 181.833,389.5 181.5,389.5C 156.167,389.5 130.833,389.5 105.5,389.5C 105.5,363.833 105.5,338.167 105.5,312.5C 122.675,312.83 139.675,312.497 156.5,311.5C 159.167,311.5 161.833,311.5 164.5,311.5C 172.258,311.263 179.925,310.263 187.5,308.5C 189.03,308.36 190.03,307.693 190.5,306.5C 207.758,303.37 223.091,296.204 236.5,285C 262.822,259.372 273.656,228.205 269,191.5C 262.176,146.184 236.676,117.85 192.5,106.5C 188.404,105.492 184.404,104.492 180.5,103.5 Z"/></g>
<g><path style="opacity:1" fill="#c2c2c2" d="M 190.5,306.5 C 190.03,307.693 189.03,308.36 187.5,308.5C 179.925,310.263 172.258,311.263 164.5,311.5C 173.005,309.635 181.672,307.968 190.5,306.5 Z"/></g>
<g><path style="opacity:1" fill="#777777" d="M 101.5,311.5 C 101.5,337.5 101.5,363.5 101.5,389.5C 102.833,389.5 104.167,389.5 105.5,389.5C 130.833,389.5 156.167,389.5 181.5,389.5C 181.5,389.833 181.5,390.167 181.5,390.5C 154.5,390.5 127.5,390.5 100.5,390.5C 100.169,363.995 100.502,337.661 101.5,311.5 Z"/></g>
<g><path style="opacity:1" fill="#c6c6c6" d="M 101.5,311.5 C 119.833,311.5 138.167,311.5 156.5,311.5C 139.675,312.497 122.675,312.83 105.5,312.5C 105.5,338.167 105.5,363.833 105.5,389.5C 104.167,389.5 102.833,389.5 101.5,389.5C 101.5,363.5 101.5,337.5 101.5,311.5 Z"/></g>
<g><path style="opacity:1" fill="#c6c9cb" d="M 287.5,342.5 C 278.765,358.302 269.765,373.969 260.5,389.5C 259.5,389.5 258.5,389.5 257.5,389.5C 265.724,374.725 274.224,360.058 283,345.5C 283.908,343.561 285.408,342.561 287.5,342.5 Z"/></g>
<g><path style="opacity:1" fill="#fefefe" d="M 287.5,342.5 C 325.833,342.5 364.167,342.5 402.5,342.5C 404.98,358.196 407.647,373.863 410.5,389.5C 360.5,389.5 310.5,389.5 260.5,389.5C 269.765,373.969 278.765,358.302 287.5,342.5 Z"/></g>
<g><path style="opacity:1" fill="#4b9389" d="M 181.5,389.5 C 181.833,389.5 182.167,389.5 182.5,389.5C 207.5,389.5 232.5,389.5 257.5,389.5C 258.5,389.5 259.5,389.5 260.5,389.5C 310.5,389.5 360.5,389.5 410.5,389.5C 432.5,389.5 454.5,389.5 476.5,389.5C 476.5,389.833 476.5,390.167 476.5,390.5C 378.5,390.5 280.5,390.5 182.5,390.5C 182.5,391.833 182.5,393.167 182.5,394.5C 132.997,394.832 83.6638,394.499 34.5,393.5C 83.5,393.5 132.5,393.5 181.5,393.5C 181.5,392.5 181.5,391.5 181.5,390.5C 181.5,390.167 181.5,389.833 181.5,389.5 Z"/></g>
<g><path style="opacity:1" fill="#25c26e" d="M 476.5,390.5 C 476.5,391.167 476.5,391.833 476.5,392.5C 378.839,394.498 280.839,395.164 182.5,394.5C 182.5,393.167 182.5,391.833 182.5,390.5C 280.5,390.5 378.5,390.5 476.5,390.5 Z"/></g>
</svg>
