<?xml version="1.0" encoding="UTF-8"?>
<!DOCTYPE svg PUBLIC "-//W3C//DTD SVG 1.1//EN" "http://www.w3.org/Graphics/SVG/1.1/DTD/svg11.dtd">
<svg xmlns="http://www.w3.org/2000/svg" version="1.1" width="500px" height="500px" style="shape-rendering:geometricPrecision; text-rendering:geometricPrecision; image-rendering:optimizeQuality; fill-rule:evenodd; clip-rule:evenodd" xmlns:xlink="http://www.w3.org/1999/xlink">
<g><path style="opacity:1" fill="#fefefe" d="M -0.5,-0.5 C 166.167,-0.5 332.833,-0.5 499.5,-0.5C 499.5,166.167 499.5,332.833 499.5,499.5C 332.833,499.5 166.167,499.5 -0.5,499.5C -0.5,332.833 -0.5,166.167 -0.5,-0.5 Z"/></g>
<g><path style="opacity:1" fill="#a2a1a1" d="M 419.5,99.5 C 350.5,99.5 281.5,99.5 212.5,99.5C 212.5,100.5 212.5,101.5 212.5,102.5C 259.167,102.5 305.833,102.5 352.5,102.5C 352.5,102.833 352.5,103.167 352.5,103.5C 352.167,103.5 351.833,103.5 351.5,103.5C 304.833,103.5 258.167,103.5 211.5,103.5C 211.5,103.167 211.5,102.833 211.5,102.5C 211.5,101.5 211.5,100.5 211.5,99.5C 280.833,98.1667 350.167,98.1667 419.5,99.5 Z"/></g>
<g><path style="opacity:1" fill="#f08f8f" d="M 211.5,99.5 C 211.5,100.5 211.5,101.5 211.5,102.5C 197.323,102.171 183.323,102.504 169.5,103.5C 124.833,103.5 80.1667,103.5 35.5,103.5C 35.1667,103.5 34.8333,103.5 34.5,103.5C 34.5,102.167 34.5,100.833 34.5,99.5C 93.5,99.5 152.5,99.5 211.5,99.5 Z"/></g>
<g><path style="opacity:1" fill="#535453" d="M 419.5,99.5 C 419.5,100.5 419.5,101.5 419.5,102.5C 397.167,102.5 374.833,102.5 352.5,102.5C 305.833,102.5 259.167,102.5 212.5,102.5C 212.5,101.5 212.5,100.5 212.5,99.5C 281.5,99.5 350.5,99.5 419.5,99.5 Z"/></g>
<g><path style="opacity:1" fill="#cecbcb" d="M 420.5,100.5 C 421.5,100.5 422.5,100.5 423.5,100.5C 442.498,197.822 461.498,295.155 480.5,392.5C 479.5,392.5 478.5,392.5 477.5,392.5C 477.737,391.209 477.404,390.209 476.5,389.5C 458.15,294.101 439.483,198.768 420.5,103.5C 420.5,102.5 420.5,101.5 420.5,100.5 Z"/></g>
<g><path style="opacity:1" fill="#b67a7a" d="M 419.5,99.5 C 420.167,99.5 420.5,99.8333 420.5,100.5C 420.5,101.5 420.5,102.5 420.5,103.5C 397.833,103.5 375.167,103.5 352.5,103.5C 352.5,103.167 352.5,102.833 352.5,102.5C 374.833,102.5 397.167,102.5 419.5,102.5C 419.5,101.5 419.5,100.5 419.5,99.5 Z"/></g>
<g><path style="opacity:1" fill="#545454" d="M 35.5,103.5 C 80.1667,103.5 124.833,103.5 169.5,103.5C 226.635,110.468 258.468,142.468 265,199.5C 267.822,245.212 249.322,278.878 209.5,300.5C 196.58,305.563 183.246,309.063 169.5,311C 148.197,312.39 126.863,312.89 105.5,312.5C 104.167,312.5 102.833,312.5 101.5,312.5C 100.502,337.995 100.169,363.661 100.5,389.5C 78.8333,389.5 57.1667,389.5 35.5,389.5C 35.5,294.167 35.5,198.833 35.5,103.5 Z"/></g>
<g><path style="opacity:1" fill="#f99393" d="M 351.5,103.5 C 351.833,103.5 352.167,103.5 352.5,103.5C 375.167,103.5 397.833,103.5 420.5,103.5C 439.483,198.768 458.15,294.101 476.5,389.5C 454.5,389.5 432.5,389.5 410.5,389.5C 407.952,373.623 404.952,357.956 401.5,342.5C 363.002,341.335 324.336,341.169 285.5,342C 275.682,357.814 266.016,373.647 256.5,389.5C 231.833,389.5 207.167,389.5 182.5,389.5C 238.833,294.167 295.167,198.833 351.5,103.5 Z"/></g>
<g><path style="opacity:1" fill="#f8d9d9" d="M 169.5,103.5 C 183.323,102.504 197.323,102.171 211.5,102.5C 211.5,102.833 211.5,103.167 211.5,103.5C 201.828,103.334 192.161,103.5 182.5,104C 238.276,114.939 267.276,148.773 269.5,205.5C 270.105,248.666 251.438,280.166 213.5,300C 212.207,300.49 210.873,300.657 209.5,300.5C 249.322,278.878 267.822,245.212 265,199.5C 258.468,142.468 226.635,110.468 169.5,103.5 Z"/></g>
<g><path style="opacity:1" fill="#121212" d="M 140.5,124.5 C 177.889,120.779 206.389,134.779 226,166.5C 244.22,208.487 235.72,243.987 200.5,273C 176.591,287.55 151.258,290.55 124.5,282C 84.8249,263.291 67.9916,232.124 74,188.5C 83.6506,154.014 105.817,132.68 140.5,124.5 Z"/></g>
<g><path style="opacity:1" fill="#efeded" d="M 143.5,126.5 C 185.666,124.872 214.5,143.538 230,182.5C 239.265,225.794 224.431,257.627 185.5,278C 139.01,293.163 104.177,279.329 81,236.5C 66.276,189.308 80.776,154.475 124.5,132C 130.97,130.216 137.303,128.383 143.5,126.5 Z"/></g>
<g><path style="opacity:1" fill="#555555" d="M 145.5,129.5 C 146.833,129.5 148.167,129.5 149.5,129.5C 149.831,138.192 149.498,146.859 148.5,155.5C 123.996,159.838 109.163,174.171 104,198.5C 103.329,232.524 119.829,251.524 153.5,255.5C 182.183,253.815 198.85,238.815 203.5,210.5C 212.167,210.5 220.833,210.5 229.5,210.5C 226.464,241.373 210.797,263.206 182.5,276C 144.409,288.58 113.576,278.747 90,246.5C 70.1438,209.357 75.3105,176.19 105.5,147C 117.357,137.567 130.69,131.733 145.5,129.5 Z"/></g>
<g><path style="opacity:1" fill="#fa9494" d="M 158.5,130.5 C 196.875,134.702 220.375,155.702 229,193.5C 229.497,196.146 229.664,198.813 229.5,201.5C 220.833,201.5 212.167,201.5 203.5,201.5C 200.148,174.815 185.148,159.815 158.5,156.5C 158.5,147.833 158.5,139.167 158.5,130.5 Z"/></g>
<g><path style="opacity:1" fill="#171717" d="M 144.5,158.5 C 172.345,156.327 190.845,168.327 200,194.5C 203.89,222.909 192.39,241.743 165.5,251C 138.323,255.494 119.49,244.994 109,219.5C 103.321,188.847 115.154,168.513 144.5,158.5 Z"/></g>
<g><path style="opacity:1" fill="#fdfdfd" d="M 143.5,161.5 C 162.564,158.791 178.064,164.791 190,179.5C 197.153,190.472 199.487,202.472 197,215.5C 192.397,233.77 180.897,244.936 162.5,249C 143.496,252.076 128.329,245.909 117,230.5C 104.236,206.14 108.403,185.306 129.5,168C 134.137,165.511 138.804,163.344 143.5,161.5 Z"/></g>
<g><path style="opacity:1" fill="#cec9c9" d="M 375.5,187.5 C 355.332,221.165 335.665,255.165 316.5,289.5C 315.167,289.5 313.833,289.5 312.5,289.5C 332.773,254.054 353.273,218.721 374,183.5C 374.791,184.745 375.291,186.078 375.5,187.5 Z"/></g>
<g><path style="opacity:1" fill="#fefefe" d="M 375.5,187.5 C 381.755,220.441 387.755,253.441 393.5,286.5C 393.5,287.5 393.5,288.5 393.5,289.5C 367.833,289.5 342.167,289.5 316.5,289.5C 335.665,255.165 355.332,221.165 375.5,187.5 Z"/></g>
<g><path style="opacity:1" fill="#fefefe" d="M 211.5,103.5 C 258.167,103.5 304.833,103.5 351.5,103.5C 295.167,198.833 238.833,294.167 182.5,389.5C 182.167,389.5 181.833,389.5 181.5,389.5C 156.167,389.5 130.833,389.5 105.5,389.5C 105.5,363.833 105.5,338.167 105.5,312.5C 126.863,312.89 148.197,312.39 169.5,311C 183.246,309.063 196.58,305.563 209.5,300.5C 210.873,300.657 212.207,300.49 213.5,300C 251.438,280.166 270.105,248.666 269.5,205.5C 267.276,148.773 238.276,114.939 182.5,104C 192.161,103.5 201.828,103.334 211.5,103.5 Z"/></g>
<g><path style="opacity:1" fill="#f5a7a7" d="M 393.5,286.5 C 394.434,287.568 394.768,288.901 394.5,290.5C 366.995,290.831 339.662,290.498 312.5,289.5C 313.833,289.5 315.167,289.5 316.5,289.5C 342.167,289.5 367.833,289.5 393.5,289.5C 393.5,288.5 393.5,287.5 393.5,286.5 Z"/></g>
<g><path style="opacity:1" fill="#fddcdc" d="M 101.5,312.5 C 102.833,312.5 104.167,312.5 105.5,312.5C 105.5,338.167 105.5,363.833 105.5,389.5C 130.833,389.5 156.167,389.5 181.5,389.5C 181.5,389.833 181.5,390.167 181.5,390.5C 154.833,390.5 128.167,390.5 101.5,390.5C 101.5,364.5 101.5,338.5 101.5,312.5 Z"/></g>
<g><path style="opacity:1" fill="#fefefe" d="M 401.5,342.5 C 404.952,357.956 407.952,373.623 410.5,389.5C 360.499,389.667 310.499,389.5 260.5,389C 269.626,373.916 278.626,358.749 287.5,343.5C 325.494,342.5 363.494,342.167 401.5,342.5 Z"/></g>
<g><path style="opacity:1" fill="#8d7978" d="M 34.5,103.5 C 34.8333,103.5 35.1667,103.5 35.5,103.5C 35.5,198.833 35.5,294.167 35.5,389.5C 57.1667,389.5 78.8333,389.5 100.5,389.5C 100.169,363.661 100.502,337.995 101.5,312.5C 101.5,338.5 101.5,364.5 101.5,390.5C 79.1667,390.5 56.8333,390.5 34.5,390.5C 34.5,294.833 34.5,199.167 34.5,103.5 Z"/></g>
<g><path style="opacity:1" fill="#b97a7a" d="M 181.5,389.5 C 181.833,389.5 182.167,389.5 182.5,389.5C 207.167,389.5 231.833,389.5 256.5,389.5C 256.5,389.833 256.5,390.167 256.5,390.5C 231.833,390.5 207.167,390.5 182.5,390.5C 182.5,391.5 182.5,392.5 182.5,393.5C 181.596,392.791 181.263,391.791 181.5,390.5C 181.5,390.167 181.5,389.833 181.5,389.5 Z"/></g>
<g><path style="opacity:1" fill="#cabdbd" d="M 401.5,342.5 C 363.494,342.167 325.494,342.5 287.5,343.5C 278.626,358.749 269.626,373.916 260.5,389C 310.499,389.5 360.499,389.667 410.5,389.5C 410.5,389.833 410.5,390.167 410.5,390.5C 359.167,390.5 307.833,390.5 256.5,390.5C 256.5,390.167 256.5,389.833 256.5,389.5C 266.016,373.647 275.682,357.814 285.5,342C 324.336,341.169 363.002,341.335 401.5,342.5 Z"/></g>
<g><path style="opacity:1" fill="#ba7b7b" d="M 410.5,390.5 C 410.5,390.167 410.5,389.833 410.5,389.5C 432.5,389.5 454.5,389.5 476.5,389.5C 477.404,390.209 477.737,391.209 477.5,392.5C 477.167,392.5 476.833,392.5 476.5,392.5C 454.859,390.511 432.859,389.844 410.5,390.5 Z"/></g>
<g><path style="opacity:1" fill="#f89999" d="M 34.5,390.5 C 56.8333,390.5 79.1667,390.5 101.5,390.5C 128.167,390.5 154.833,390.5 181.5,390.5C 181.263,391.791 181.596,392.791 182.5,393.5C 182.5,393.833 182.5,394.167 182.5,394.5C 133.167,394.5 83.8333,394.5 34.5,394.5C 34.5,393.167 34.5,391.833 34.5,390.5 Z"/></g>
<g><path style="opacity:1" fill="#606060" d="M 256.5,390.5 C 307.833,390.5 359.167,390.5 410.5,390.5C 432.859,389.844 454.859,390.511 476.5,392.5C 378.839,394.498 280.839,395.164 182.5,394.5C 182.5,394.167 182.5,393.833 182.5,393.5C 182.5,392.5 182.5,391.5 182.5,390.5C 207.167,390.5 231.833,390.5 256.5,390.5 Z"/></g>
</svg>
